<svg width="924" height="309" viewBox="0 0 924 309" fill="none" xmlns="http://www.w3.org/2000/svg">
    <path d="M849.569 0H73.549c-2.828 0-5.623 0-8.445.016-2.36.016-4.703.06-7.088.098-5.18.061-10.347.517-15.458 1.363a51.414 51.414 0 0 0-14.663 4.837 49.661 49.661 0 0 0-12.486 9.092A48.275 48.275 0 0 0 6.321 27.91 50.922 50.922 0 0 0 1.5 42.593 100.227 100.227 0 0 0 .117 58.036C.046 60.401.037 62.774 0 65.14v178.301c.038 2.395.046 4.715.117 7.112A100.23 100.23 0 0 0 1.5 265.995a50.82 50.82 0 0 0 4.82 14.689 47.883 47.883 0 0 0 9.09 12.453 48.414 48.414 0 0 0 12.485 9.092 51.695 51.695 0 0 0 14.663 4.866c5.112.84 10.279 1.296 15.458 1.364 2.384.052 4.727.082 7.09.082 2.82.016 5.615.016 8.444.016h776.018c2.773 0 5.59 0 8.362-.016 2.351 0 4.762-.03 7.112-.082 5.17-.065 10.327-.521 15.428-1.364a52.473 52.473 0 0 0 14.72-4.866 48.45 48.45 0 0 0 12.475-9.092 49.35 49.35 0 0 0 9.114-12.453 50.952 50.952 0 0 0 4.775-14.689 104.236 104.236 0 0 0 1.433-15.443c.03-2.396.031-4.716.031-7.111.061-2.803.061-5.59.061-8.438V73.563c0-2.826 0-5.628-.061-8.423 0-2.366-.001-4.739-.031-7.105a104.237 104.237 0 0 0-1.432-15.443 51.035 51.035 0 0 0-4.776-14.68A49.88 49.88 0 0 0 895.19 6.312a52.208 52.208 0 0 0-14.72-4.837c-5.1-.85-10.258-1.305-15.428-1.363-2.35-.037-4.761-.083-7.112-.098C855.158 0 852.341 0 849.568 0h.001z" fill="#A6A6A6"/>
    <path d="M65.141 301.807c-2.35 0-4.643-.03-6.975-.082a97.962 97.962 0 0 1-14.418-1.257 45.4 45.4 0 0 1-12.78-4.228 41.688 41.688 0 0 1-10.776-7.842 41.041 41.041 0 0 1-7.873-10.772 44.134 44.134 0 0 1-4.189-12.784 95.736 95.736 0 0 1-1.283-14.463c-.05-1.627-.114-7.043-.114-7.043V65.14s.068-5.334.114-6.901a95.426 95.426 0 0 1 1.276-14.44 44.401 44.401 0 0 1 4.193-12.822 41.452 41.452 0 0 1 7.83-10.784 42.93 42.93 0 0 1 10.818-7.887A44.916 44.916 0 0 1 43.718 8.11a97.086 97.086 0 0 1 14.467-1.264l6.96-.096h792.748l7.043.098c4.803.057 9.595.476 14.336 1.254a45.81 45.81 0 0 1 12.889 4.227 43.145 43.145 0 0 1 18.629 18.667 44.45 44.45 0 0 1 4.129 12.72 100.32 100.32 0 0 1 1.34 14.557c.023 2.184.023 4.53.023 6.867.062 2.892.062 5.645.062 8.422v161.441c0 2.802 0 5.537-.062 8.294 0 2.508 0 4.806-.03 7.171a98.307 98.307 0 0 1-1.32 14.298 44.24 44.24 0 0 1-4.165 12.882 42.287 42.287 0 0 1-7.833 10.689 41.77 41.77 0 0 1-10.795 7.888 45.238 45.238 0 0 1-12.867 4.241 96.753 96.753 0 0 1-14.419 1.258c-2.307.054-4.615.082-6.922.083l-8.362.015-784.428-.015z" fill="#000"/>
    <path d="M191.065 156.598a38.168 38.168 0 0 1 18.177-32.028 39.057 39.057 0 0 0-13.426-11.961 39.062 39.062 0 0 0-17.361-4.683c-12.954-1.36-25.511 7.751-32.113 7.751-6.728 0-16.891-7.616-27.834-7.391a41.005 41.005 0 0 0-34.505 21.042c-14.918 25.83-3.79 63.79 10.501 84.669 7.15 10.224 15.506 21.643 26.44 21.238 10.7-.443 14.695-6.823 27.612-6.823 12.795 0 16.544 6.823 27.7 6.566 11.481-.186 18.715-10.269 25.614-20.59a84.561 84.561 0 0 0 11.713-23.855 36.883 36.883 0 0 1-22.518-33.935zm-21.072-62.404a37.585 37.585 0 0 0 8.597-26.926 38.242 38.242 0 0 0-24.743 12.802 35.766 35.766 0 0 0-8.822 25.93 31.62 31.62 0 0 0 24.968-11.806zm156.322 115.16h-36.513l-8.768 25.89h-15.466l34.585-95.791h16.068l34.585 95.791h-15.73l-8.761-25.89zm-32.731-11.948h28.942l-14.267-42.02h-.4l-14.275 42.02zm131.912 2.923c0 21.702-11.616 35.646-29.145 35.646a23.679 23.679 0 0 1-21.975-12.219h-.332v34.592h-14.335v-92.943h13.876v11.617h.264a24.765 24.765 0 0 1 22.238-12.347c17.725 0 29.409 14.011 29.409 35.653v.001zm-14.735 0c0-14.14-7.307-23.436-18.455-23.436-10.954 0-18.321 9.492-18.321 23.435 0 14.073 7.367 23.497 18.321 23.497 11.148 0 18.455-9.228 18.455-23.497v.001zm91.603 0c0 21.702-11.616 35.646-29.146 35.646a23.68 23.68 0 0 1-21.974-12.219h-.331v34.592h-14.336v-92.943h13.876v11.617h.264a24.777 24.777 0 0 1 22.237-12.347c17.726 0 29.41 14.011 29.41 35.653v.001zm-14.735 0c0-14.14-7.307-23.436-18.456-23.436-10.954 0-18.321 9.492-18.321 23.435 0 14.073 7.367 23.497 18.321 23.497 11.149 0 18.456-9.228 18.456-23.497v.001zm65.538 8.226c1.063 9.499 10.291 15.737 22.901 15.737 12.083 0 20.776-6.238 20.776-14.803 0-7.436-5.243-11.888-17.657-14.938l-12.415-2.991c-17.59-4.249-25.756-12.475-25.756-25.824 0-16.528 14.404-27.879 34.856-27.879 20.241 0 34.117 11.351 34.584 27.879h-14.471c-.866-9.559-8.768-15.33-20.317-15.33-11.548 0-19.45 5.839-19.45 14.336 0 6.773 5.047 10.758 17.393 13.808l10.555 2.592c19.653 4.647 27.82 12.542 27.82 26.553 0 17.922-14.276 29.146-36.981 29.146-21.244 0-35.586-10.961-36.513-28.287l14.675.001zm89.757-59.677v16.527h13.281v11.353h-13.281v38.501c0 5.982 2.659 8.769 8.498 8.769a45.066 45.066 0 0 0 4.715-.332v11.285a39.302 39.302 0 0 1-7.962.662c-14.14 0-19.654-5.31-19.654-18.855v-40.03h-10.155v-11.353h10.155v-16.527h14.403zm20.973 51.451c0-21.975 12.941-35.782 33.123-35.782 20.249 0 33.13 13.807 33.13 35.782 0 22.034-12.814 35.782-33.131 35.782-20.309 0-33.122-13.748-33.122-35.782zm51.646 0c0-15.074-6.907-23.971-18.524-23.971-11.615 0-18.516 8.964-18.516 23.971 0 15.134 6.901 23.963 18.516 23.963 11.617 0 18.524-8.829 18.524-23.963zm26.426-34.924h13.673v11.887h.332a16.66 16.66 0 0 1 16.799-12.617 22.103 22.103 0 0 1 4.911.534v13.409a20.035 20.035 0 0 0-6.441-.866 14.445 14.445 0 0 0-14.938 16.068v41.424h-14.336v-69.839zm101.81 49.327c-1.928 12.678-14.275 21.379-30.072 21.379-20.316 0-32.927-13.612-32.927-35.451 0-21.906 12.678-36.113 32.324-36.113 19.323 0 31.474 13.273 31.474 34.448v4.912h-49.327v.866a18.182 18.182 0 0 0 4.929 14.131 18.19 18.19 0 0 0 13.858 5.651 15.798 15.798 0 0 0 16.129-9.823h13.612zm-48.46-20.844h34.915a16.79 16.79 0 0 0-17.13-17.726 17.687 17.687 0 0 0-12.586 5.157 17.686 17.686 0 0 0-5.199 12.569zM291.787 67.351a20.359 20.359 0 0 1 20.811 13.981c.937 2.864 1.226 5.9.847 8.89 0 14.704-7.948 23.157-21.658 23.157h-16.626v-46.03l16.626.002zm-9.476 39.518h8.678a14.478 14.478 0 0 0 11.528-4.665 14.47 14.47 0 0 0 3.65-11.889 14.51 14.51 0 0 0-15.178-16.46h-8.678v33.014zm39.209-10.873a16.46 16.46 0 0 1 9.723-16.616 16.456 16.456 0 0 1 23.038 16.616 16.449 16.449 0 0 1-9.714 16.647 16.456 16.456 0 0 1-18.856-3.99 16.466 16.466 0 0 1-4.191-12.657zm25.711 0c0-7.53-3.383-11.933-9.319-11.933-5.959 0-9.31 4.403-9.31 11.933 0 7.589 3.352 11.958 9.31 11.958 5.936 0 9.319-4.399 9.319-11.958zm50.6 17.382h-7.112l-7.179-25.582h-.542l-7.149 25.582h-7.043l-9.575-34.736h6.953l6.223 26.505h.512l7.141-26.505h6.577l7.141 26.505h.542l6.192-26.505h6.856l-9.537 34.736zm17.589-34.735h6.599v5.518h.513a10.398 10.398 0 0 1 10.366-6.189 11.294 11.294 0 0 1 11.635 7.913c.503 1.619.635 3.33.387 5.006v22.486h-6.855V92.613c0-5.582-2.426-8.358-7.495-8.358a7.969 7.969 0 0 0-8.294 8.802v20.321h-6.856V78.643zm40.423-13.56h6.855v48.295h-6.855V65.083zm16.385 30.913a16.447 16.447 0 0 1 4.204-12.637 16.444 16.444 0 0 1 12.178-5.389 16.454 16.454 0 0 1 15.617 11.263c.724 2.176.985 4.48.766 6.763a16.449 16.449 0 0 1-4.194 12.653 16.452 16.452 0 0 1-12.189 5.398 16.455 16.455 0 0 1-12.188-5.398 16.465 16.465 0 0 1-4.194-12.653zm25.71 0c0-7.53-3.382-11.933-9.318-11.933-5.959 0-9.311 4.403-9.311 11.933 0 7.589 3.353 11.958 9.311 11.958 5.936 0 9.318-4.399 9.318-11.958zm14.272 7.559c0-6.253 4.655-9.858 12.919-10.37l9.409-.542v-2.998c0-3.67-2.426-5.74-7.111-5.74-3.827 0-6.479 1.404-7.24 3.86h-6.637c.701-5.966 6.313-9.792 14.193-9.792 8.708 0 13.62 4.335 13.62 11.672v23.733h-6.599v-4.881h-.543a11.682 11.682 0 0 1-10.433 5.453 10.498 10.498 0 0 1-8.095-2.628 10.5 10.5 0 0 1-3.483-7.767zm22.328-2.968v-2.904l-8.483.542c-4.783.32-6.953 1.948-6.953 5.009 0 3.127 2.712 4.946 6.441 4.946a8.177 8.177 0 0 0 6.107-1.89 8.18 8.18 0 0 0 2.888-5.703zm15.835-4.591c0-10.977 5.642-17.93 14.418-17.93a11.445 11.445 0 0 1 10.652 6.095h.512V65.082h6.855v48.295h-6.569v-5.488h-.542a12.05 12.05 0 0 1-4.609 4.551 12.048 12.048 0 0 1-6.299 1.51c-8.837 0-14.418-6.954-14.418-17.955zm7.081 0c0 7.366 3.473 11.8 9.28 11.8 5.777 0 9.349-4.497 9.349-11.771 0-7.239-3.609-11.8-9.349-11.8-5.77 0-9.28 4.463-9.28 11.77zm53.718 0a16.463 16.463 0 0 1 9.723-16.616 16.451 16.451 0 0 1 18.835 3.98 16.46 16.46 0 0 1 4.203 12.635 16.451 16.451 0 0 1-4.19 12.658 16.461 16.461 0 0 1-24.381 0 16.463 16.463 0 0 1-4.19-12.657zm25.71 0c0-7.53-3.382-11.933-9.318-11.933-5.959 0-9.311 4.403-9.311 11.933 0 7.589 3.353 11.958 9.311 11.958 5.936 0 9.318-4.399 9.318-11.958zm16.249-17.353h6.599v5.518h.512a10.4 10.4 0 0 1 10.366-6.189 11.3 11.3 0 0 1 11.636 7.913c.503 1.619.635 3.33.387 5.006v22.486h-6.855V92.613c0-5.582-2.426-8.358-7.496-8.358a7.964 7.964 0 0 0-7.921 5.416 7.971 7.971 0 0 0-.373 3.386v20.321h-6.854l-.001-34.735zm68.236-8.648v8.806h7.525v5.774h-7.525v17.861c0 3.638 1.498 5.232 4.911 5.232a22.839 22.839 0 0 0 2.614-.159v5.711c-1.232.22-2.479.337-3.729.35-7.623 0-10.659-2.682-10.659-9.378V84.575h-5.514V78.8h5.514v-8.804l6.863-.001zm16.888-4.912h6.796v19.142h.542a10.688 10.688 0 0 1 10.591-6.223 11.447 11.447 0 0 1 11.533 7.978c.507 1.605.654 3.303.43 4.972v22.426h-6.862V92.643c0-5.549-2.585-8.358-7.428-8.358a8.122 8.122 0 0 0-6.421 2.37 8.107 8.107 0 0 0-2.325 6.436v20.287h-6.856V65.083zm69.863 38.916a14.1 14.1 0 0 1-15.051 10.049 15.777 15.777 0 0 1-16.046-17.928 16.026 16.026 0 0 1 9.352-16.759 16.018 16.018 0 0 1 6.663-1.389c9.665 0 15.496 6.603 15.496 17.51v2.393h-24.528v.384a9.182 9.182 0 0 0 9.251 9.951 8.321 8.321 0 0 0 4.772-.849 8.323 8.323 0 0 0 3.492-3.362h6.599zm-24.114-11.194h17.545a8.389 8.389 0 0 0-2.283-6.392 8.381 8.381 0 0 0-6.267-2.606 8.884 8.884 0 0 0-8.995 8.998z" fill="#fff"/>
</svg>
