<svg width="34" height="30" viewBox="0 0 34 30" fill="none" xmlns="http://www.w3.org/2000/svg">
    <path fill-rule="evenodd" clip-rule="evenodd" d="M12.61 0c.482 0 .873.39.873.872v28.256a.872.872 0 1 1-1.745 0V.872c0-.482.391-.872.873-.872zm2.892 3.853c.481 0 .872.39.872.872v20.55a.872.872 0 1 1-1.744 0V4.725c0-.481.39-.872.872-.872zM9.719 5.254c.482 0 .873.39.873.872v17.748a.872.872 0 0 1-1.745 0V6.126c0-.481.39-.872.872-.872zm11.565 1.401c.482 0 .873.39.873.872v14.946a.872.872 0 1 1-1.745 0V7.527c0-.481.39-.872.872-.872zM6.712 8.056c.482 0 .873.39.873.873v12.143a.872.872 0 0 1-1.745 0V8.928c0-.482.39-.873.872-.873zm11.681 1.051c.482 0 .872.39.872.872v10.042a.872.872 0 1 1-1.744 0V9.979c0-.481.39-.872.872-.872zm11.565.35c.482 0 .872.391.872.873v9.34a.872.872 0 0 1-1.744 0v-9.34c0-.482.39-.872.872-.872zm-2.775 1.635c.481 0 .872.39.872.872v6.072a.872.872 0 1 1-1.744 0v-6.072c0-.481.39-.872.872-.872zM3.82 12.376c.482 0 .872.391.872.873v3.386a.872.872 0 1 1-1.744 0v-3.386c0-.482.39-.873.872-.873zm20.355.117c.481 0 .872.39.872.872v3.27a.872.872 0 1 1-1.744 0v-3.27c0-.481.39-.872.872-.872zm-23.304.35c.482 0 .872.391.872.873v2.452a.872.872 0 0 1-1.744 0v-2.452c0-.482.39-.872.872-.872zm32.093.234c.482 0 .872.39.872.872v2.102a.872.872 0 1 1-1.744 0v-2.102c0-.482.39-.872.872-.872z" fill="#34A853"/>
</svg>
