<svg width="37" height="37" viewBox="0 0 37 37" fill="none" xmlns="http://www.w3.org/2000/svg">
    <path fill-rule="evenodd" clip-rule="evenodd" d="M18.5 35C27.613 35 35 27.613 35 18.5S27.613 2 18.5 2 2 9.387 2 18.5 9.387 35 18.5 35zm0 2C28.717 37 37 28.717 37 18.5S28.717 0 18.5 0 0 8.283 0 18.5 8.283 37 18.5 37z" fill="#2A66BC"/>
    <path d="M20 26h-4V14h4v2a4.618 4.618 0 0 1 3.525-1.763A4.5 4.5 0 0 1 28 18.75V26h-4v-6.75a2.265 2.265 0 0 0-2.247-1.944A1.815 1.815 0 0 0 20 19.25V26zm-6 0h-4V14h4v12zm-2-14a2 2 0 1 1 0-4 2 2 0 0 1 0 4z" fill="#2A66BC"/>
</svg>
