<svg width="87" height="87" viewBox="0 0 87 87" fill="none" xmlns="http://www.w3.org/2000/svg">
    <path opacity=".2" d="M86.5 43.5c0 23.748-19.252 43-43 43s-43-19.252-43-43 19.252-43 43-43 43 19.252 43 43z" fill="#000" stroke="#000"/>
    <path fill-rule="evenodd" clip-rule="evenodd" d="m57.266 43.72-20.98-12.057v24.113l20.98-12.057zm3.473 1.995c1.543-.887 1.543-3.105 0-3.991L36.285 27.672c-1.543-.887-3.472.221-3.472 1.995v28.104c0 1.774 1.929 2.882 3.472 1.995L60.74 45.715z" fill="#FFFFFE"/>
    <path d="M60.078 44.095 35.54 58.568l-.454-28.947 24.993 14.474z" fill="#FFFFFE"/>
    <circle cx="43.719" cy="43.719" r="31.219" stroke="#FFFFFE" stroke-width="3"/>
</svg>
