<svg width="585" height="432" viewBox="0 0 585 432" fill="none" xmlns="http://www.w3.org/2000/svg">
    <path d="M584.77 368.907H0v.293h584.77v-.293zM112.288 379.211h-39.46v.292h39.46v-.292zM144.286 379.059h-23.414v.292h23.414v-.292zM256.539 386.731H145.678v.293h110.861v-.293zM375.574 376.591h-78.92v.293h78.92v-.293zM483.804 379.188h-70.372v.292h70.372v-.292z" fill="#E6E6E6"/>
    <path d="M319.834 293.589c-20.759-32.174-18.408 62.652-56.547 20.514-46.864-51.764-114.1-69.12-84.71-29.496 29.391 39.624 11.906 53.343-62.278 8.982-53.799-32.174 45.413 64.325 18.245 60.617-27.169-3.707-68.383-12.666-33.238 14.608l227.99.093s11.297-43.179-9.462-75.318zM420.461 368.907h-50.723c-26.431-18.209-41.144-66.979-3.964-119.983a184.808 184.808 0 0 1 23.039-26.677c14.07 74.441 74.699 124.579 31.648 146.66z" fill="#FFF0D9"/>
    <path d="M326.816 368.907h50.723c23.543-13.461 30.467-49.506-15.145-88.686a218.746 218.746 0 0 0-27.297-19.718c-2.211 55.027-54.84 92.078-8.281 108.404z" fill="#FFF0D9"/>
    <path d="M457.009 368.907h-41.951c-19.473-11.134-25.204-40.934 12.526-73.353a180.422 180.422 0 0 1 22.572-16.315c1.824 45.518 45.366 76.16 6.853 89.668z" fill="#FFF0D9"/>
    <path d="M426.882 368.907s1.17-13.917 13.894-21.051a41.8 41.8 0 0 0-4.082 21.051h-9.812zM358.265 368.907s-1.169-13.917-13.894-21.051a41.8 41.8 0 0 1 4.082 21.051h9.812zM184.132 368.907s-1.169-13.917-13.894-21.051a41.8 41.8 0 0 1 4.082 21.051h9.812z" fill="#FFF0D9"/>
    <path d="M73.985 368.907s-4.093-19.437-23.133-29.449a63.155 63.155 0 0 1 9.438 29.449h13.695z" fill="#FAFAFA"/>
    <path d="M513.194 368.907s3.228-28.583-19.987-43.273c6.619 20.725-.152 43.273-.152 43.273h20.139z" fill="#FFF0D9"/>
    <path d="M500.294 368.907s6.549-23.391 30.256-35.367a80.547 80.547 0 0 0-13.801 35.367h-16.455zM419.514 368.907s.854-23.39 16.374-31.846c-6.924 11.988-6.527 31.846-6.527 31.846h-9.847zM261.649 368.907a15.572 15.572 0 0 1 7.532-11.426 22.611 22.611 0 0 0-2.21 11.426h-5.322zM261.451 368.907a15.572 15.572 0 0 0-7.532-11.426 22.611 22.611 0 0 1 2.21 11.426h5.322z" fill="#FFF0D9"/>
    <path d="M257.685 368.907s.468-12.666 8.865-17.274c-3.754 6.503-3.509 17.274-3.509 17.274h-5.356zM117.586 368.907s.994-10.105-11.696-17.274c5.216 10.093 1.906 17.274 1.906 17.274h9.79zM117.948 368.907s1.17-13.917 13.894-21.051a41.79 41.79 0 0 0-4.081 21.051h-9.813z" fill="#FFF0D9"/>
    <path d="M124.895 368.907s-.854-23.39-16.373-31.846c6.923 11.988 6.526 31.846 6.526 31.846h9.847zM62.605 139.116c4.223-5.333 12.725-9.461 19.006-9.204a7.016 7.016 0 0 1 5.064 1.918c11.473-6.643 24.677-10.736 35.577-10.28 5.544.222 9.859 1.59 12.865 3.824 12.315-10.035 28.069-17.145 39.413-17.145 6.468 0 10.526 2.339 11.93 6.14 12.642-6.725 25.624-10.865 36.103-10.865 16.69 0 22.116 10.526 15.286 25.273 2.737 2.772 15.906 6.667 15.368 11.322H61.869c.234-.328.468-.644.736-.983zM250.282 46.886c3.099.152 5.262 1.287 6.455 3.123 15.625-10.83 33.25-17.473 47.437-16.736 7.251.35 12.76 2.596 16.432 6.233 16.982-16.373 38.162-27.87 53.074-27.87 8.479 0 13.531 3.743 15.028 9.988 17.146-10.982 34.502-17.707 48.209-17.707 16.981 0 24.49 10.34 22.151 26.257 8.187-4.679 16.221-7.357 22.771-7.357 9.075 0 13.321 5.24 12.584 13.438.782-.004 1.563.04 2.339.129 13.847 1.356 19.157 11.964 12.502 24.069H225.581c6.21-7.988 16.911-13.964 24.701-13.567zM392.895 153.244a3.727 3.727 0 0 1 3.146 1.509c7.626-5.275 16.21-8.514 23.134-8.187a11.87 11.87 0 0 1 8.011 3.041c8.28-7.953 18.608-13.59 25.87-13.59 4.141 0 6.597 1.824 7.333 4.865 8.363-5.345 16.818-8.631 23.496-8.631 8.292 0 11.941 5.041 10.807 12.865 3.988-2.257 7.906-3.591 11.099-3.591 4.421 0 6.503 2.55 6.14 6.55h1.17c6.748.667 9.356 5.848 6.081 11.695h-138.31c3.029-3.824 8.246-6.736 12.023-6.526zM292.385 421.724c125.237 0 226.762-5.928 226.762-13.239 0-7.312-101.525-13.24-226.762-13.24s-226.762 5.928-226.762 13.24c0 7.311 101.525 13.239 226.762 13.239z" fill="#FFF0D9"/>
    <path d="M185.918 225.094c6.364-1.55 10.266-7.965 8.716-14.329-1.551-6.363-7.966-10.266-14.329-8.715-6.364 1.55-10.266 7.965-8.716 14.328 1.55 6.364 7.965 10.266 14.329 8.716z" fill="#E98C37"/>
    <path opacity=".2" d="M185.918 225.094c6.364-1.55 10.266-7.965 8.716-14.329-1.551-6.363-7.966-10.266-14.329-8.715-6.364 1.55-10.266 7.965-8.716 14.328 1.55 6.364 7.965 10.266 14.329 8.716z" fill="#E98C37"/>
    <path d="M197.498 101.315c9.458-5.306 12.825-17.275 7.519-26.733-5.306-9.459-17.274-12.825-26.733-7.52-9.458 5.306-12.825 17.275-7.519 26.733 5.306 9.459 17.274 12.825 26.733 7.52z" fill="#E98C37"/>
    <path opacity=".2" d="M197.498 101.315c9.458-5.306 12.825-17.275 7.519-26.733-5.306-9.459-17.274-12.825-26.733-7.52-9.458 5.306-12.825 17.275-7.519 26.733 5.306 9.459 17.274 12.825 26.733 7.52z" fill="#E98C37"/>
    <path d="M200.132 84.241v-.07c.005-.63-.042-1.26-.141-1.883a12.256 12.256 0 0 0-11.812-10.268h-.608c-.545.016-1.088.067-1.626.152a12.23 12.23 0 0 0-10.257 12.01V84.324c-.005.63.042 1.26.141 1.883a12.265 12.265 0 0 0 12.046 10.28h.058a12.257 12.257 0 0 0 12.187-12.245h.012zm-3.217 4.842h-2.14c.328-1.258.52-2.548.573-3.847h2.737a10.158 10.158 0 0 1-1.17 3.8v.047zm-18.046-9.672h2.141a19.087 19.087 0 0 0-.562 3.848h-2.678c.1-1.36.474-2.684 1.099-3.895v.047zm14.444 3.123v.725h-4.467V79.41h3.812c.319 1.001.538 2.032.655 3.076v.047zm-4.421-5.111v-3.24c.291.103.567.245.819.421a7.228 7.228 0 0 1 2.234 2.819h-3.053zm-1.988-3.24v3.24h-3.064a6.047 6.047 0 0 1 3.064-3.287v.047zm0 5.228v3.848h-4.456a17.2 17.2 0 0 1 .655-3.848h3.801zm-9.122 6.48a5.997 5.997 0 0 1-.07-.656h2.736c0 .305 0 .597.059.901.088.995.26 1.981.514 2.947h-2.152a10.135 10.135 0 0 1-1.099-3.24l.012.047zm4.678.07v-.725h4.468v3.847h-3.813a16.032 16.032 0 0 1-.667-3.17l.012.048zm4.421 5.11V94.3a3.157 3.157 0 0 1-.819-.409 7.222 7.222 0 0 1-2.234-2.819h3.053zm1.988 3.228v-3.274h3.064a6.02 6.02 0 0 1-3.041 3.228l-.023.046zm0-5.216v-3.847h4.456a16.57 16.57 0 0 1-.643 3.847h-3.813zm6.456-5.847c0-.305 0-.609-.059-.901a18.868 18.868 0 0 0-.514-2.947h2.152c.535.997.902 2.076 1.087 3.193 0 .222 0 .432.071.654h-2.737zm.187-5.848h-1.368a13.34 13.34 0 0 0-1.006-2c.257.164.526.327.772.514.594.43 1.139.925 1.625 1.474l-.023.012zM182.647 75.4a13.81 13.81 0 0 0-1.006 1.988h-1.415a10.55 10.55 0 0 1 2.444-2l-.023.012zm-2.409 15.636h1.415c.278.697.618 1.366 1.017 2a10.299 10.299 0 0 1-2.409-2.011l-.023.011zm12.865 1.989c.388-.635.725-1.3 1.006-1.989h1.403a10.465 10.465 0 0 1-2.386 1.977l-.023.012z" fill="#fff"/>
    <path d="M472.226 145.985c2.51-10.55-4.009-21.138-14.559-23.647-10.551-2.51-21.138 4.009-23.648 14.559-2.51 10.551 4.009 21.138 14.559 23.648 10.551 2.509 21.139-4.009 23.648-14.56z" fill="#E98C37"/>
    <path d="M462.378 132.754h-18.491a3.51 3.51 0 0 0-3.508 3.509v9.543a3.507 3.507 0 0 0 3.508 3.509h13.567l-.094 3.333 3.427-3.333h1.591a3.51 3.51 0 0 0 3.508-3.509v-9.52a3.51 3.51 0 0 0-2.16-3.263 3.51 3.51 0 0 0-1.348-.269zm-18.912 4.117a.995.995 0 0 1 .994-.983h4.246a.983.983 0 0 1 0 1.965h-4.281a.993.993 0 0 1-.959-.982zm17.859 9.239h-7.356a.989.989 0 0 1-.763-.245.99.99 0 0 1-.327-.731.989.989 0 0 1 .327-.732.986.986 0 0 1 .763-.245h7.356a.984.984 0 0 1 1.004 1.377.974.974 0 0 1-.597.535.984.984 0 0 1-.407.041zm0-4.128h-15.882a.986.986 0 0 1-.625-1.633.982.982 0 0 1 .625-.32h15.882a.967.967 0 0 1 .407.041.97.97 0 0 1 .682.935.989.989 0 0 1-.326.732.98.98 0 0 1-.763.245zm0-4.129h-9.356a.979.979 0 0 1-.983-.982.983.983 0 0 1 .983-.983h9.356a.985.985 0 0 1 .982.983.982.982 0 0 1-.982.982z" fill="#fff"/>
    <path d="M290.696 46.57c1.623-6.345-2.205-12.805-8.55-14.428-6.346-1.623-12.805 2.204-14.429 8.55-1.623 6.345 2.205 12.805 8.55 14.428 6.346 1.623 12.805-2.204 14.429-8.55z" fill="#E98C37"/>
    <path opacity=".2" d="M290.754 46.448c1.623-6.345-2.205-12.805-8.55-14.428-6.345-1.624-12.805 2.204-14.428 8.55-1.624 6.345 2.204 12.805 8.549 14.428 6.346 1.623 12.806-2.205 14.429-8.55z" fill="#E98C37"/>
    <path d="M284.636 38.511h-10.748a2.07 2.07 0 0 0-2.058 2.035v5.544a2.071 2.071 0 0 0 2.058 2.058h7.883v1.942l2-1.942h.924a2.07 2.07 0 0 0 2.058-2.058v-5.544a2.06 2.06 0 0 0-.635-1.457 2.076 2.076 0 0 0-1.482-.578zm-10.993 2.34a.571.571 0 0 1 .573-.574h2.479a.564.564 0 0 1 .562.573.573.573 0 0 1-.562.573h-2.479a.584.584 0 0 1-.573-.55v-.023zm10.35 5.39h-4.28a.585.585 0 1 1 0-1.169h4.28a.587.587 0 0 1 .414.999.587.587 0 0 1-.414.17zm0-2.397h-9.239a.574.574 0 0 1-.519-.788.562.562 0 0 1 .519-.346h9.239a.553.553 0 0 1 .522.345.536.536 0 0 1 .039.216.544.544 0 0 1-.16.405.556.556 0 0 1-.401.168zm0-2.339h-5.473a.574.574 0 0 1-.522-.791.555.555 0 0 1 .522-.355h5.473a.562.562 0 0 1 .561.573.573.573 0 0 1-.561.515v.058z" fill="#fff"/>
    <path d="M360.359 52.065c4.631-4.631 4.631-12.14 0-16.771-4.631-4.632-12.14-4.632-16.771 0-4.632 4.63-4.632 12.14 0 16.77 4.631 4.632 12.14 4.632 16.771 0z" fill="#E98C37"/>
    <path opacity=".1" d="M360.421 51.877c4.632-4.631 4.632-12.14 0-16.772-4.631-4.63-12.14-4.63-16.771 0-4.631 4.632-4.631 12.14 0 16.772 4.631 4.631 12.14 4.631 16.771 0z" fill="#fff"/>
    <path d="M357.527 38.138h-10.96a2.019 2.019 0 0 0-1.406.584c-.373.37-.585.87-.589 1.393v6.669c.002.523.213 1.025.587 1.395.373.37.88.58 1.408.582h10.96c.529 0 1.037-.209 1.411-.58.374-.37.584-.873.584-1.397v-6.669a1.975 1.975 0 0 0-.587-1.396 2.01 2.01 0 0 0-1.408-.58zm-7.222 8.104v-5.578l4.87 2.754-4.87 2.824z" fill="#fff"/>
    <path d="M411.584 96.47c6.549 0 11.859-5.31 11.859-11.86s-5.31-11.859-11.859-11.859c-6.55 0-11.859 5.31-11.859 11.86 0 6.549 5.309 11.858 11.859 11.858z" fill="#E98C37"/>
    <path d="M416.718 79.803h-9.824a1.8 1.8 0 0 0-1.79 1.79v6.035a1.805 1.805 0 0 0 1.79 1.79h9.824a1.801 1.801 0 0 0 1.789-1.79v-6.035a1.8 1.8 0 0 0-1.789-1.79zm-6.479 7.334v-5.041l4.362 2.514-4.362 2.526zM188.039 208.751h-9.825a1.789 1.789 0 0 0-1.777 1.789v6.035a1.785 1.785 0 0 0 .52 1.257 1.79 1.79 0 0 0 1.257.521h9.825a1.79 1.79 0 0 0 1.789-1.778v-6.023a1.803 1.803 0 0 0-1.789-1.801zm-6.48 7.333v-5.053l4.374 2.526-4.374 2.527z" fill="#fff"/>
    <path d="M458.752 167.372c-63.997-3.193-104.966 20.046-129.679 45.308 29.461-67.365 98.3-110.685 98.3-110.685-56.921 14.783-89.47 46.653-107.855 77.482 20.97-74.968 74.371-135.526 74.371-135.526-49.12 31.577-72.85 72.078-84.323 107.153 4.935-78.488 26.022-114.814 26.022-114.814s-39.332 13.497-43.133 128.1c-3.789-114.556-43.121-128.1-43.121-128.1s21.052 36.256 26.011 114.767c-11.473-35.086-35.238-75.61-84.312-107.153 0 0 53.389 60.559 74.371 135.526-18.385-30.829-50.934-62.699-107.855-77.482 0 0 68.839 43.273 98.241 110.685-24.712-25.262-65.681-48.5-129.678-45.308 0 0 149.034 27.765 141.654 150.392-2.339 39.553-11.298 65.494-18.022 90.721h80.791c2.339-26.759-7.391-64.325-12.619-92.031-16.736-118.393 140.836-149.035 140.836-149.035z" fill="#FFE1B4"/>
    <path d="M135.934 149.688c1.891-7.962-3.031-15.95-10.993-17.841-7.962-1.891-15.95 3.031-17.841 10.993-1.891 7.962 3.031 15.95 10.993 17.841 7.962 1.891 15.95-3.031 17.841-10.993z" fill="#E98C37"/>
    <path d="M127.101 140.225h-11.082a2.12 2.12 0 0 0-1.497.628 2.148 2.148 0 0 0-.624 1.506v5.764a2.15 2.15 0 0 0 .624 1.506c.397.4.935.625 1.497.628h8.131l-.059 1.967 2.053-1.967h.977a2.124 2.124 0 0 0 1.497-.628c.397-.4.621-.941.624-1.506v-5.764a2.145 2.145 0 0 0-1.325-1.975 2.096 2.096 0 0 0-.816-.159zm-11.336 2.459a.597.597 0 0 1 .596-.6h2.551a.595.595 0 0 1 .52.595.603.603 0 0 1-.52.595h-2.551a.595.595 0 0 1-.596-.59zm10.75 5.567h-4.417a.599.599 0 0 1-.61-.342.588.588 0 0 1 0-.487.58.58 0 0 1 .363-.321.574.574 0 0 1 .247-.021h4.417a.589.589 0 0 1 .463 1.029.603.603 0 0 1-.463.142zm0-2.489h-9.519a.583.583 0 0 1-.586-.59.589.589 0 0 1 .586-.59h9.519a.583.583 0 0 1 .586.59.59.59 0 0 1-.586.59zm0-2.488h-5.639a.6.6 0 0 1 0-1.19h5.639a.59.59 0 0 1 .371.198.604.604 0 0 1 0 .793.596.596 0 0 1-.371.199z" fill="#fff"/>
    <path d="M242.586 319.225a64.515 64.515 0 0 1-.526 2.503l-.597 2.339a136.15 136.15 0 0 1-1.298 4.561 134.45 134.45 0 0 1-3.123 8.854 198.004 198.004 0 0 1-3.614 8.584 135.815 135.815 0 0 1-1.988 4.211l-.514 1.04-.281.585c-.152.293-.292.585-.456.842a13.661 13.661 0 0 1-2.199 2.842 19.255 19.255 0 0 1-5.006 3.509 31.982 31.982 0 0 1-4.982 1.953 53.978 53.978 0 0 1-9.684 1.883 90.572 90.572 0 0 1-18.841 0l.105-5.906c2.854-.304 5.848-.632 8.725-1.17 2.877-.538 5.766-.982 8.55-1.625a54.079 54.079 0 0 0 7.917-2.456 14.587 14.587 0 0 0 5.556-3.509c.205-.235.374-.499.503-.784l.643-1.649c.538-1.368 1.052-2.748 1.579-4.128 1.052-2.749 2.011-5.532 2.959-8.304a201.72 201.72 0 0 0 2.654-8.339c.433-1.38.831-2.772 1.17-4.152l.538-2.07.468-1.906 11.742 2.292z" fill="#E4897B"/>
    <path d="M234.61 304.547c-4.678 1.17-8 20.573-8 20.573l12.97 8.818s12.444-19.543 8.819-24.712c-3.766-5.392-6.912-6.421-13.789-4.679z" fill="#E98C37"/>
    <path opacity=".6" d="M234.61 304.547c-4.678 1.17-8 20.573-8 20.573l12.97 8.818s12.444-19.543 8.819-24.712c-3.766-5.392-6.912-6.421-13.789-4.679z" fill="#000"/>
    <path opacity=".4" d="m234.189 311.588 10.069 2.339.971 9.848a113.823 113.823 0 0 1-5.649 10.163l-7.871-5.345c.339-4.526 1.193-13.952 2.48-17.005z" fill="#000"/>
    <path d="M240.995 332.184a.325.325 0 0 1-.175 0l-13.824-9.357a.313.313 0 0 1-.082-.432.301.301 0 0 1 .421-.082l13.836 9.356a.32.32 0 0 1 .129.2.32.32 0 0 1-.047.233.32.32 0 0 1-.258.082z" fill="#fff"/>
    <path d="M234.61 304.548s-5.38 1.906 5.461 68.932h46.384c-.783-18.876-.807-30.525 8.187-69.26a136.6 136.6 0 0 0-19.695-2.596 147.036 147.036 0 0 0-21.052 0c-9.028.83-19.285 2.924-19.285 2.924z" fill="#E98C37"/>
    <path opacity=".6" d="M234.61 304.548s-5.38 1.906 5.461 68.932h46.384c-.783-18.876-.807-30.525 8.187-69.26a136.6 136.6 0 0 0-19.695-2.596 147.036 147.036 0 0 0-21.052 0c-9.028.83-19.285 2.924-19.285 2.924z" fill="#000"/>
    <path d="M314.489 386.544c-1.169-15.005-22.513-14.292-36.91-12.444l-1.954.269c-.421-.912-1.45-1.345-3.157-1.099-11.766-.293-27.66.21-27.66.21-7.485-1.579-21.94-2.619-32.922-2.678-10.421-.07-24.958 0-32.572 2.175-6.666 1.93-13.462 3.299-14.701 9.357-1.24 6.058.152 20.537 12.14 23.391 13.297 3.192 29.414 4.303 43.6 6.818 0 0 1.474-5.064 3.813-11.918l.28.117h.106c3.993.605 8.041.762 12.069.468a5.08 5.08 0 0 1 5.357 4.21c1.006 6.035 7.076 13.111 35.226 12.281 28.151-.831 38.502-16.152 37.285-31.157z" fill="#E98C37"/>
    <path opacity=".2" d="M314.489 386.544c-1.169-15.005-22.513-14.292-36.91-12.444l-1.954.269c-.421-.912-1.45-1.345-3.157-1.099-11.766-.293-27.66.21-27.66.21-7.485-1.579-21.94-2.619-32.922-2.678-10.421-.07-24.958 0-32.572 2.175-6.666 1.93-13.462 3.299-14.701 9.357-1.24 6.058.152 20.537 12.14 23.391 13.297 3.192 29.414 4.303 43.6 6.818 0 0 1.474-5.064 3.813-11.918l.28.117h.106c3.993.605 8.041.762 12.069.468a5.08 5.08 0 0 1 5.357 4.21c1.006 6.035 7.076 13.111 35.226 12.281 28.151-.831 38.502-16.152 37.285-31.157z" fill="#000"/>
    <path d="m287.145 370.779.375 4.152c.163.327-.222.654-.76.654h-46.922c-.41 0-.761-.21-.784-.467l-.421-4.152c0-.293.327-.538.795-.538h46.969a.833.833 0 0 1 .748.351z" fill="#E98C37"/>
    <path opacity=".7" d="m287.145 370.779.375 4.152c.163.327-.222.654-.76.654h-46.922c-.41 0-.761-.21-.784-.467l-.421-4.152c0-.293.327-.538.795-.538h46.969a.833.833 0 0 1 .748.351z" fill="#fff"/>
    <path d="M280.842 376.006h1.251c.257 0 .444-.128.433-.28l-.597-5.404c0-.152-.234-.28-.479-.28h-1.263c-.246 0-.445.128-.421.28l.584 5.404c.024.152.234.28.492.28zM243.381 376.006h1.252c.257 0 .444-.128.421-.28l-.585-5.404c0-.152-.234-.28-.491-.28h-1.252c-.257 0-.444.128-.432.28l.596 5.404c.012.152.234.28.491.28zM262.106 376.006h1.263c.245 0 .432-.128.421-.28l-.585-5.404c0-.152-.246-.28-.491-.28h-1.263c-.246 0-.433.128-.421.28l.596 5.404c.012.152.234.28.48.28z" fill="#E98C37"/>
    <g opacity=".6" fill="#000">
        <path opacity=".6" d="M280.842 376.007h1.251c.257 0 .444-.129.433-.281l-.597-5.403c0-.152-.234-.281-.479-.281h-1.263c-.246 0-.445.129-.421.281l.584 5.403c.024.152.234.281.492.281zM243.381 376.007h1.252c.257 0 .444-.129.421-.281l-.585-5.403c0-.152-.234-.281-.491-.281h-1.252c-.257 0-.444.129-.432.281l.596 5.403c.012.152.234.281.491.281zM262.106 376.007h1.263c.245 0 .432-.129.421-.281l-.585-5.403c0-.152-.246-.281-.491-.281h-1.263c-.246 0-.433.129-.421.281l.596 5.403c.012.152.234.281.48.281z"/>
    </g>
    <path d="m191.267 356.966-8.105-8.186-1.065 11.566s6.082 4.105 10.281 1.895l-1.111-5.275zM173.642 347.528l-.363 9.731 8.818 3.064 1.065-11.567-9.52-1.228z" fill="#E4897B"/>
    <path opacity=".6" d="m283.765 322.208 5.977 5.087c-1.275 6.783-2.129 12.432-2.678 17.45-1.123-5.041-3.965-18.69-3.299-22.537z" fill="#000"/>
    <path d="M288.479 289.998c-3.626-6.327-7.205-13.976-3.801-24.665 3.906-12.28 1.777-18.35-.69-21.286-2.234-2.655-5.754-3.848-9.941-3.403a7.789 7.789 0 0 0-5.918 2.83s-18.081 1.544-29.66 14.912c3.743 10.888-1.614 24.127-8.502 29.156 21.952 18.608 45.483 12.783 53.179 9.357 3.695-1.661 5.005-3.965 4.198-7.684l.632 1.111a.28.28 0 0 0 .245.152c.05.012.102.012.152 0a.29.29 0 0 0 .179-.355.304.304 0 0 0-.073-.125zm-4.936-45.612a11.563 11.563 0 0 1 2.339 5.263 14.406 14.406 0 0 0-8.257-8.409 9.357 9.357 0 0 1 5.918 3.228v-.082zm-.292 20.081a28.254 28.254 0 0 0 2.456-5.637 50.043 50.043 0 0 1-1.591 6.292 26.237 26.237 0 0 0-.643 14.666c-1.965-4.912-2.935-10.444-.222-15.286v-.035z" fill="#263238"/>
    <path d="M278.467 275.87a1.474 1.474 0 1 1-2.947.001 1.474 1.474 0 0 1 2.947-.001zM260.538 312.501c-2.21 0-8.923 0-11.215-4.761a7.395 7.395 0 0 1-.129-5.777.316.316 0 0 1 .398-.187.316.316 0 0 1 .187.397 6.819 6.819 0 0 0 .093 5.298c2.129 4.421 8.55 4.421 10.666 4.421 15.017 0 17.614-9.005 17.719-9.356l.187-.713a.314.314 0 0 1 .143-.186.311.311 0 0 1 .344.015.292.292 0 0 1 .082.093.302.302 0 0 1 .028.241l-.188.702c-.117.386-2.842 9.813-18.315 9.813z" fill="#fff"/>
    <path d="M272.889 277.905c-1.322 6.784-2.655 19.193 2.093 23.719 0 0-1.859 6.877-14.444 6.877-12.116 0-6.619-6.877-6.619-6.877 7.555-1.801 7.356-7.415 6.046-12.678l12.924-11.041z" fill="#E4897B"/>
    <path d="m267.626 282.408-7.661 6.503c.325 1.222.544 2.471.655 3.731 2.889-.41 6.854-3.579 7.158-6.608a10.212 10.212 0 0 0-.152-3.626z" fill="#CE6F64"/>
    <path d="M273.672 260.047c1.31 11.262 2.105 15.999-2.491 22.724-6.923 10.116-21.052 9.251-25.73-1.38-4.187-9.579-5.625-26.385 4.491-32.747a15.452 15.452 0 0 1 21 4.103 15.445 15.445 0 0 1 2.73 7.3z" fill="#E4897B"/>
    <path d="M262.924 250.398c-2.561 4.935-21.239 10.865-30.151 10.315a13.835 13.835 0 0 0 3.509-2.538c0-3.847 0-12.245 5.754-17.028a26.694 26.694 0 0 1 25.063-5.322 10.804 10.804 0 0 1 7.263 7.076l.632 1.942-12.07 5.555z" fill="#263238"/>
    <path d="m266.901 246.609-4.924 2.783s-3.251 17.391 12.689 16.947c-.058 0-.21-17.193-7.765-19.73z" fill="#263238"/>
    <path d="M278.444 267.988a8.62 8.62 0 0 1-2.924 5.614c-2.21 1.871-4.409.21-4.678-2.48-.269-2.432.538-6.327 3.193-7.157 2.655-.831 4.655 1.368 4.409 4.023z" fill="#E4897B"/>
    <path d="m221.967 410.835 3.298-12.397a.897.897 0 0 1 .36-.532.895.895 0 0 1 .622-.158l10.187 1.17a1.83 1.83 0 0 1 1.289.824 1.826 1.826 0 0 1 .208 1.515c-1.228 4.304-2.035 6.315-3.508 11.765-.889 3.357-2.339 10.386-3.614 15.017-1.275 4.632-5.848 3.661-5.848 1.626.444-9.146-1.17-13.228-2.889-16.795a2.97 2.97 0 0 1-.105-2.035z" fill="#263238"/>
    <path d="m247.124 413.408 3.298-12.397a.908.908 0 0 0-.053-.64.907.907 0 0 0-.462-.447l-9.438-4.024a1.83 1.83 0 0 0-1.492.078 1.835 1.835 0 0 0-.941 1.162c-1.076 4.351-1.38 6.503-2.83 11.953-.889 3.356-3.087 10.198-4.327 14.829-1.24 4.632 3.286 6.105 4.21 4.281 4.164-8.187 7.637-10.877 10.865-13.134a3.038 3.038 0 0 0 1.17-1.661zM257.357 266.187c.164.912-.187 1.731-.783 1.836-.597.105-1.17-.55-1.369-1.45-.198-.901.187-1.731.784-1.837.596-.105 1.205.539 1.368 1.451zM247.1 268.023c.164.9-.187 1.719-.772 1.836-.584.117-1.169-.55-1.368-1.45-.199-.901.187-1.731.772-1.836.585-.106 1.216.538 1.368 1.45z" fill="#263238"/>
    <path d="m246.013 266.573-2.339-.234s1.462 1.52 2.339.234z" fill="#263238"/>
    <path d="M250.094 269.099a24.585 24.585 0 0 1-2.152 6.362 3.98 3.98 0 0 0 3.345 0l-1.193-6.362z" fill="#DE5753"/>
    <path d="M255.907 277.987a.165.165 0 0 1-.193-.134.168.168 0 0 1 .027-.125.17.17 0 0 1 .108-.068 7.683 7.683 0 0 0 4.046-3.813.175.175 0 0 1 .035-.057.15.15 0 0 1 .056-.038.15.15 0 0 1 .066-.013c.022 0 .045.005.065.015a.179.179 0 0 1 .097.097.178.178 0 0 1-.003.136 7.917 7.917 0 0 1-4.246 4h-.058zM258.609 260.374a.427.427 0 0 1-.234-.082 4.456 4.456 0 0 0-3.953-1.052.354.354 0 0 1-.433-.234.361.361 0 0 1 .234-.433 5.207 5.207 0 0 1 4.608 1.169.342.342 0 0 1 0 .48.335.335 0 0 1-.222.152zM241.253 264.35a.355.355 0 0 1-.337-.293.352.352 0 0 1 .056-.256 5.172 5.172 0 0 1 4.152-2.339.35.35 0 0 1 .339.351.399.399 0 0 1-.363.339 4.445 4.445 0 0 0-3.508 2.011.364.364 0 0 1-.339.187zM256.258 264.736l-2.339-.233s1.473 1.496 2.339.233z" fill="#263238"/>
    <path d="M299.051 316.98c1.17 3.415 2.187 6.771 3.193 10.187 1.006 3.415 1.836 6.865 2.655 10.35.819 3.485 1.52 7.017 2.047 10.69a60.89 60.89 0 0 1 .585 5.648c0 .983.07 1.989 0 3.041v1.252l-.059.608a11.923 11.923 0 0 1-.503 2.339 15.587 15.587 0 0 1-4.245 6.409 30.917 30.917 0 0 1-4.971 3.766 60.965 60.965 0 0 1-10.187 4.83 112.647 112.647 0 0 1-20.829 5.509l-1.415-5.731a178.826 178.826 0 0 0 18.712-7.895 57.542 57.542 0 0 0 8.187-4.935 19.61 19.61 0 0 0 3.146-2.772 5.656 5.656 0 0 0 1.38-2.339c0-1.064-.071-2.126-.21-3.181-.187-1.509-.468-3.099-.784-4.678-.62-3.205-1.45-6.479-2.339-9.742a445.047 445.047 0 0 0-2.783-9.813c-.971-3.263-1.989-6.584-2.971-9.766l11.391-3.777z" fill="#E4897B"/>
    <path d="m267.661 376.217-10.842-2.737 5.158 10.397s7.321.316 9.742-3.765l-4.058-3.895z" fill="#E4897B"/>
    <path d="m248.071 377.433 4.795 8.468 9.123-2.024-5.17-10.397-8.748 3.953z" fill="#E4897B"/>
    <path d="m221.932 413.046 4.28-16.058-5.637-2.327-7.941 17.239 9.298 1.146z" fill="#E98C37"/>
    <path opacity=".7" d="m221.932 413.046 4.28-16.058-5.637-2.327-7.941 17.239 9.298 1.146z" fill="#fff"/>
    <path d="m246.597 413.256 2.69-15.04 6.573-.246-.514 19.146-8.749-3.86z" fill="#E98C37"/>
    <path opacity=".7" d="m246.597 413.256 2.69-15.04 6.573-.246-.514 19.146-8.749-3.86z" fill="#fff"/>
    <path d="M220.599 418.157a1.482 1.482 0 0 1-.573-.117.8.8 0 0 1-.527-.573c-.362-1.509 3.029-5.275 3.415-5.708a.207.207 0 0 1 .106-.03c.037 0 .073.011.105.03a.194.194 0 0 1 .093.079.194.194 0 0 1 .024.12c-.117 1.86-.515 5.123-1.883 6.011-.23.135-.494.2-.76.188zm2.222-5.708c-1.17 1.334-3.193 3.942-2.947 4.936a.414.414 0 0 0 .292.304 1.043 1.043 0 0 0 .982-.094c.831-.538 1.439-2.444 1.673-5.146z" fill="#E98C37"/>
    <path d="M218.552 414.671a1.17 1.17 0 0 1-.468-.081c-.257-.117-.55-.41-.433-1.1a1.857 1.857 0 0 1 .807-1.275c1.497-1.064 4.503-.538 4.678-.514a.188.188 0 0 1 .141.128c.014.03.022.062.022.094a.223.223 0 0 1-.022.094c-.901 1.005-3.404 2.654-4.725 2.654zm2.702-2.736a4.669 4.669 0 0 0-2.573.596 1.483 1.483 0 0 0-.655 1.018c-.082.549.14.655.21.69.784.351 3.287-1.018 4.433-2.211-.47-.057-.942-.089-1.415-.093zM245.381 420.636h-.164a1.41 1.41 0 0 1-1.087-.772c-.749-1.45.526-4.479 1.345-6.152a.198.198 0 0 1 .362 0c.129.562 1.17 5.521.117 6.643a.755.755 0 0 1-.573.281zm.199-6.257c-.62 1.357-1.731 4.093-1.111 5.298a1.05 1.05 0 0 0 .807.573.416.416 0 0 0 .409-.129c.702-.736.234-3.999-.082-5.742h-.023z" fill="#E98C37"/>
    <path d="M248.703 418.589h-.071c-1.274-.128-2.923-3.321-3.169-4.771a.167.167 0 0 1 .007-.099.17.17 0 0 1 .063-.077.183.183 0 0 1 .094-.027.18.18 0 0 1 .093.027c.117 0 2.994 1.076 3.766 2.737a1.924 1.924 0 0 1 .059 1.509c-.222.561-.562.701-.842.701zm-2.796-4.537c.421 1.602 1.907 4.023 2.761 4.105.081 0 .327 0 .514-.48a1.473 1.473 0 0 0 0-1.169c-.608-1.205-2.503-2.094-3.275-2.456zM294.724 304.22c4.678 1.415 11.695 19.648 11.695 19.648l-18.022 12.865s-8.105-15.59-6.152-21.601c2.047-6.234 7.123-12.526 12.479-10.912z" fill="#E98C37"/>
    <path opacity=".6" d="M294.724 304.22c4.678 1.415 11.695 19.648 11.695 19.648l-18.022 12.865s-8.105-15.59-6.152-21.601c2.047-6.234 7.123-12.526 12.479-10.912z" fill="#000"/>
    <path d="M287.321 334.85a.317.317 0 0 1-.289-.215.32.32 0 0 1 .102-.346l18.174-12.994a.299.299 0 0 1 .337-.013c.033.022.062.05.084.084a.299.299 0 0 1-.07.432l-18.163 12.994a.27.27 0 0 1-.175.058z" fill="#fff"/>
    <path d="M156.964 341.423h81.4l11.801 48.068h-81.4l-11.801-48.068z" fill="#E98C37"/>
    <path d="m198.202 380.533 49.787 11.613 31.952-8.959-.327-2.654h-81.412z" fill="#E98C37"/>
    <path d="M154.461 341.423h81.4l11.789 48.068h-81.388l-11.801-48.068z" fill="#E98C37"/>
    <path opacity=".5" d="M154.461 341.423h81.4l11.789 48.068h-81.388l-11.801-48.068z" fill="#fff"/>
    <path d="m166.262 389.491.327 2.655h81.4l-.327-2.655h-81.4z" fill="#E98C37"/>
    <path opacity=".5" d="m166.262 389.491.327 2.655h81.4l-.327-2.655h-81.4z" fill="#fff"/>
</svg>
