<svg width="33" height="32" viewBox="0 0 33 32" fill="none" xmlns="http://www.w3.org/2000/svg">
    <path fill-rule="evenodd" clip-rule="evenodd" d="M18.628 4.415a6.397 6.397 0 0 1 9.043.214l.387.406a6.397 6.397 0 0 1-.214 9.043l-6.266 5.976a6.397 6.397 0 0 1-9.043-.215l-1.985-2.081 2.15-2.051 1.986 2.081a3.424 3.424 0 0 0 4.841.115l6.265-5.975a3.424 3.424 0 0 0 .115-4.842l-.387-.406a3.424 3.424 0 0 0-4.841-.115l-3.133 2.988-2.051-2.15 3.133-2.988z" fill="#3C7493"/>
    <path fill-rule="evenodd" clip-rule="evenodd" d="M13.845 27.585a6.397 6.397 0 0 1-9.043-.214l-.387-.406a6.397 6.397 0 0 1 .214-9.043l6.265-5.976a6.396 6.396 0 0 1 9.044.215l1.985 2.081-2.151 2.051-1.985-2.081a3.425 3.425 0 0 0-4.841-.115L6.68 20.073a3.424 3.424 0 0 0-.115 4.84l.387.407a3.424 3.424 0 0 0 4.842.115l3.133-2.988 2.05 2.15-3.132 2.988z" fill="#3C7493"/>
</svg>
