<svg width="37" height="37" viewBox="0 0 37 37" fill="none" xmlns="http://www.w3.org/2000/svg">
    <path d="M20.51 29V18.5h2.898l.399-3.633H20.51l.021-1.806c0-.945.084-1.449 1.428-1.449h1.827V8h-2.898c-3.486 0-4.725 1.743-4.725 4.704v2.163H14V18.5h2.163V29h4.347z" fill="#2D71DE"/>
    <path fill-rule="evenodd" clip-rule="evenodd" d="M18.5 35C27.613 35 35 27.613 35 18.5S27.613 2 18.5 2 2 9.387 2 18.5 9.387 35 18.5 35zm0 2C28.717 37 37 28.717 37 18.5S28.717 0 18.5 0 0 8.283 0 18.5 8.283 37 18.5 37z" fill="#2D71DE"/>
</svg>
