<svg width="17" height="13" viewBox="0 0 17 13" fill="none" xmlns="http://www.w3.org/2000/svg">
    <path d="M1.125 12.378H3.75V6.003L0 3.19v8.063c0 .621.503 1.125 1.125 1.125z" fill="#4285F4"/>
    <path d="M12.75 12.378h2.625c.622 0 1.125-.504 1.125-1.125V3.19l-3.75 2.813v6.375z" fill="#34A853"/>
    <path d="M12.75 1.128v4.875l3.75-2.812v-1.5C16.5.3 14.913-.494 13.8.34l-1.05.787z" fill="#FBBC04"/>
    <path fill-rule="evenodd" clip-rule="evenodd" d="M3.75 6.003V1.128l4.5 3.375 4.5-3.375v4.875l-4.5 3.375-4.5-3.375z" fill="#EA4335"/>
    <path d="M0 1.69v1.5l3.75 2.813V1.128L2.7.341C1.587-.494 0 .3 0 1.69z" fill="#C5221F"/>
</svg>
