<svg width="924" height="274" viewBox="0 0 924 274" fill="none" xmlns="http://www.w3.org/2000/svg">
    <path d="M888.889 273.947h-854.7C15.384 273.947 0 258.537 0 239.703V34.243C0 15.41 15.384 0 34.188 0h854.7c18.804 0 34.189 15.41 34.189 34.243v205.46c0 18.834-15.385 34.244-34.189 34.244" fill="#000"/>
    <path d="M888.889 0h-854.7C15.384 0 0 15.41 0 34.243v205.46c0 18.834 15.384 34.244 34.188 34.244h854.7c18.804 0 34.189-15.41 34.189-34.244V34.243C923.077 15.41 907.692 0 888.888 0h.001zm-.001 5.479c15.837 0 28.718 12.906 28.718 28.764v205.46c0 15.862-12.882 28.768-28.718 28.768h-854.7c-15.833 0-28.718-12.906-28.718-28.768V34.243C5.47 18.386 18.355 5.48 34.188 5.48h854.7" fill="#A6A6A6"/>
    <path d="M324.228 70.154c0 5.738-1.696 10.307-5.094 13.716-3.859 4.053-8.889 6.08-15.072 6.08-5.922 0-10.956-2.054-15.096-6.169-4.148-4.111-6.218-9.21-6.218-15.294 0-6.086 2.07-11.182 6.218-15.297 4.14-4.112 9.174-6.17 15.096-6.17 2.938 0 5.751.576 8.422 1.724 2.67 1.15 4.813 2.678 6.415 4.59l-3.606 3.614c-2.716-3.25-6.455-4.874-11.231-4.874-4.319 0-8.053 1.52-11.204 4.562-3.153 3.044-4.728 6.993-4.728 11.851 0 4.859 1.575 8.807 4.728 11.852 3.151 3.041 6.885 4.561 11.204 4.561 4.581 0 8.4-1.528 11.458-4.588 1.985-1.994 3.133-4.765 3.44-8.323h-14.899v-4.936h19.881c.192 1.073.285 2.103.285 3.101" fill="#fff"/>
    <path d="M324.229 70.153h-.684c-.006 5.607-1.641 9.962-4.894 13.232l-.007.005-.003.006c-3.737 3.913-8.54 5.861-14.579 5.87-5.763-.009-10.587-1.978-14.615-5.97-4.02-3.999-6.007-8.882-6.015-14.81.008-5.93 1.995-10.81 6.015-14.807 4.028-3.994 8.852-5.966 14.615-5.974 2.85 0 5.564.557 8.152 1.667 2.591 1.118 4.637 2.584 6.162 4.404l.524-.442-.484-.485-3.606 3.617.483.482.527-.438c-2.842-3.412-6.832-5.131-11.758-5.121-4.478-.006-8.418 1.597-11.677 4.754-3.29 3.167-4.944 7.338-4.938 12.343-.006 5.006 1.648 9.176 4.938 12.344 3.259 3.157 7.199 4.76 11.677 4.754 4.733.008 8.767-1.6 11.942-4.789 2.121-2.13 3.323-5.08 3.638-8.748l.064-.744h-14.96v-3.566h19.197v-.685l-.674.12c.187 1.04.276 2.026.276 2.981h1.367c0-1.04-.096-2.11-.297-3.223l-.101-.563h-21.135v6.306h15.582v-.685l-.681-.059c-.302 3.447-1.397 6.041-3.243 7.898-2.938 2.932-6.543 4.38-10.975 4.387-4.158-.005-7.686-1.44-10.728-4.368-3.013-2.92-4.512-6.646-4.52-11.36.008-4.714 1.507-8.44 4.52-11.359 3.042-2.93 6.57-4.363 10.728-4.369 4.624.011 8.115 1.541 10.709 4.631l.481.573 4.131-4.144.444-.444-.404-.48c-1.68-2.005-3.918-3.597-6.669-4.78a21.809 21.809 0 0 0-8.692-1.779c-6.078-.005-11.324 2.135-15.579 6.37-4.271 4.227-6.423 9.54-6.418 15.781-.005 6.239 2.147 11.555 6.421 15.784 4.252 4.233 9.498 6.37 15.576 6.365 6.331.006 11.582-2.1 15.567-6.293l-.495-.473.484.485c3.542-3.545 5.299-8.334 5.294-14.2h-.684.001zm31.516-17.164h-18.683v13.029h16.849v4.937h-16.849v13.03h18.683v5.047h-23.95V47.94h23.95v5.049" fill="#fff"/>
    <path d="M355.745 52.989v-.685h-19.367v14.399h16.849v3.566l-16.849.002v14.398h18.683v3.679h-22.582V48.626h22.582v4.363h.684v-.685.685h.684v-5.733h-25.318v42.462h25.318V83.3h-18.683V71.64h16.848v-6.307h-16.848v-11.66h18.683v-.684h-.684zm22.23 36.044H372.7V52.989h-11.458V47.94h28.192v5.049h-11.459v36.043" fill="#fff"/>
    <path d="M377.975 89.033v-.685h-4.592V52.304h-11.458v-3.678h26.825v3.678h-11.459v36.729h.684v-.685.685h.684v-35.36h11.458v-6.417h-29.559v6.417h11.458v36.044h6.643v-.685h-.684zm31.856 0V47.94h5.27v41.092h-5.27" fill="#fff"/>
    <path d="M409.832 89.033h.684V48.626h3.902v39.722h-4.586v.685h.684-.684v.684h5.953V47.257h-6.637v42.462h.684v-.685zm28.654 0h-5.275V52.989h-11.458V47.94h28.191v5.049h-11.458v36.043" fill="#fff"/>
    <path d="M438.485 89.033v-.685h-4.591V52.304h-11.458v-3.678h26.824v3.678h-11.459v36.729h.684v-.685.685h.684V53.674h11.458v-6.418h-29.559v6.418h11.458v36.044h6.643v-.685h-.684zm38.638-8.75c3.037 3.079 6.752 4.617 11.146 4.617 4.394 0 8.111-1.538 11.143-4.617 3.04-3.08 4.562-7.016 4.562-11.796 0-4.78-1.522-8.716-4.562-11.795-3.032-3.08-6.749-4.618-11.143-4.618-4.394 0-8.109 1.539-11.146 4.618-3.032 3.079-4.554 7.015-4.554 11.795s1.522 8.717 4.554 11.796zm26.189 3.44c-4.034 4.154-9.05 6.228-15.043 6.228-5.999 0-11.013-2.074-15.037-6.228-4.036-4.15-6.045-9.23-6.045-15.236s2.009-11.087 6.045-15.235c4.024-4.156 9.038-6.232 15.037-6.232 5.962 0 10.964 2.087 15.016 6.258 4.046 4.17 6.071 9.24 6.071 15.21 0 6.005-2.02 11.085-6.044 15.235z" fill="#fff"/>
    <path d="m477.123 80.282-.486.481c3.15 3.203 7.079 4.83 11.632 4.821 4.551.008 8.486-1.618 11.63-4.82 3.17-3.206 4.764-7.353 4.759-12.278.005-4.924-1.589-9.071-4.759-12.277-3.144-3.202-7.079-4.828-11.63-4.82-4.553-.008-8.482 1.618-11.632 4.82-3.162 3.206-4.76 7.353-4.751 12.277-.009 4.925 1.589 9.072 4.751 12.277l.486-.481.487-.482c-2.901-2.956-4.351-6.675-4.357-11.314.006-4.638 1.456-8.357 4.356-11.314 2.928-2.955 6.424-4.405 10.66-4.413 4.233.008 7.738 1.458 10.657 4.413 2.906 2.957 4.357 6.676 4.362 11.314-.005 4.639-1.456 8.358-4.362 11.314-2.919 2.956-6.423 4.406-10.657 4.414-4.236-.008-7.732-1.458-10.66-4.414l-.486.482zm26.189 3.44-.489-.476c-3.921 4.024-8.715 6.011-14.554 6.02-5.841-.009-10.636-1.996-14.549-6.02l-.018-.021.018.021c-3.912-4.037-5.843-8.906-5.849-14.76.006-5.853 1.937-10.722 5.849-14.759 3.913-4.024 8.708-6.014 14.549-6.022 5.801.008 10.585 2.007 14.527 6.051 3.927 4.056 5.869 8.917 5.877 14.73-.008 5.854-1.945 10.723-5.85 14.76l.489.476.492.476c4.145-4.264 6.241-9.553 6.236-15.712.005-6.123-2.099-11.401-6.264-15.684-4.166-4.3-9.385-6.474-15.507-6.467-6.153-.007-11.388 2.157-15.529 6.44v-.003c-4.153 4.267-6.242 9.556-6.236 15.714-.006 6.159 2.083 11.448 6.236 15.715l.019.019-.019-.022c4.141 4.283 9.376 6.443 15.529 6.437 6.151.006 11.386-2.154 15.535-6.437l-.492-.476zm13.443 5.31V47.94h6.416l19.938 31.967h.227l-.227-7.92V47.94h5.275v41.092h-5.502l-20.86-33.516h-.227l.227 7.922v25.594h-5.267" fill="#fff"/>
    <path d="M516.755 89.033h.684V48.626h5.352l19.939 31.966h1.309l-.246-8.614V48.626h3.908v39.722h-4.439l-20.86-33.516h-1.309l.245 8.618v24.898h-4.583v.685h.684-.684v.684h5.951v-26.29l-.227-7.929-.684.019v.685h.227v-.685l-.58.364 21.061 33.837h6.565V47.255h-6.642v24.74l.227 7.93.684-.019v-.684h-.228v.684l.58-.363-20.139-32.288h-7.478v42.462h.684v-.685h-.001zM731.187 205.46h12.759v-85.616h-12.759v85.616zm114.919-54.775-14.625 37.119h-.438l-15.179-37.12H802.12l22.762 51.881-12.977 28.858h13.312l35.077-80.739-14.188.001zm-72.355 45.051c-4.185 0-10.01-2.093-10.01-7.272 0-6.608 7.261-9.141 13.524-9.141 5.614 0 8.247 1.211 11.658 2.865-.991 7.93-7.808 13.548-15.172 13.548zm1.538-46.925c-9.238 0-18.803 4.077-22.762 13.109l11.323 4.736c2.42-4.736 6.926-6.279 11.658-6.279 6.598 0 13.306 3.967 13.415 11.016v.881c-2.311-1.322-7.254-3.304-13.306-3.304-12.205 0-24.635 6.717-24.635 19.275 0 11.455 10.01 18.836 21.223 18.836 8.582 0 13.307-3.855 16.281-8.37h.437v6.607h12.315v-32.825c0-15.198-11.323-23.682-25.949-23.682zm-78.851 12.296h-18.147V131.76h18.147c9.539 0 14.954 7.91 14.954 14.673 0 6.635-5.416 14.674-14.954 14.674zm-.328-41.263h-30.571v85.616h12.752v-32.437h17.819c14.14 0 28.041-10.255 28.041-26.59s-13.901-26.589-28.041-26.589zm-166.708 75.907c-8.814 0-16.194-7.391-16.194-17.544 0-10.259 7.38-17.763 16.194-17.763 8.702 0 15.532 7.504 15.532 17.763 0 10.153-6.83 17.544-15.532 17.544zm14.65-40.272h-.441c-2.863-3.42-8.373-6.509-15.312-6.509-14.541 0-27.869 12.798-27.869 29.237 0 16.33 13.328 29.019 27.869 29.019 6.939 0 12.449-3.091 15.312-6.619h.441v4.192c0 11.146-5.948 17.103-15.531 17.103-7.821 0-12.668-5.629-14.653-10.372l-11.124 4.634c3.194 7.723 11.677 17.213 25.777 17.213 14.981 0 27.649-8.829 27.649-30.343v-52.299h-12.118v4.744zm20.93 49.981h12.778v-85.62h-12.778v85.62zm31.615-28.245c-.331-11.255 8.702-16.991 15.201-16.991 5.071 0 9.365 2.536 10.794 6.18l-25.995 10.811zm39.656-9.709c-2.42-6.512-9.805-18.536-24.896-18.536-14.981 0-27.428 11.805-27.428 29.128 0 16.33 12.337 29.128 28.86 29.128 13.331 0 21.044-8.165 24.237-12.909l-9.915-6.621c-3.302 4.856-7.822 8.055-14.322 8.055-6.499 0-11.124-2.98-14.1-8.826l38.884-16.11-1.32-3.309zm-309.799-9.599v12.357h29.521c-.881 6.951-3.195 12.026-6.72 15.557-4.295 4.304-11.015 9.048-22.802 9.048-18.176 0-32.385-14.674-32.385-32.88 0-18.204 14.209-32.88 32.386-32.88 9.804 0 16.962 3.862 22.251 8.827l8.702-8.715c-7.38-7.063-17.185-12.47-30.953-12.47-24.897 0-45.826 20.303-45.826 45.238 0 24.936 20.929 45.237 45.826 45.237 13.44 0 23.573-4.412 31.503-12.689 8.152-8.165 10.687-19.639 10.687-28.906 0-2.871-.22-5.517-.663-7.724h-41.527zm75.753 37.844c-8.815 0-16.416-7.282-16.416-17.653 0-10.482 7.601-17.654 16.416-17.654 8.811 0 16.412 7.172 16.412 17.654 0 10.371-7.601 17.653-16.412 17.653zm0-46.781c-16.085 0-29.194 12.246-29.194 29.128 0 16.771 13.109 29.128 29.194 29.128 16.081 0 29.19-12.357 29.19-29.128 0-16.882-13.109-29.128-29.19-29.128zm63.68 46.781c-8.811 0-16.413-7.282-16.413-17.653 0-10.482 7.602-17.654 16.413-17.654s16.413 7.172 16.413 17.654c0 10.371-7.602 17.653-16.413 17.653zm0-46.781c-16.084 0-29.19 12.246-29.19 29.128 0 16.771 13.106 29.128 29.19 29.128 16.082 0 29.191-12.357 29.191-29.128 0-16.882-13.109-29.128-29.191-29.128z" fill="#fff"/>
    <path d="M71.854 52.127c-2.295 2.074-3.665 5.533-3.665 10.124v-1.038 151.5-.998c0 4.24 1.175 7.514 3.165 9.623l.508.487v.002c1.61 1.456 3.675 2.229 6.042 2.226 2.312 0 4.914-.738 7.66-2.298l99.249-56.483 34.092-19.403c4.329-2.464 6.76-5.642 7.166-8.88v-.013c-.406-3.245-2.837-6.42-7.166-8.884L184.81 108.69 85.564 52.208c-2.751-1.563-5.355-2.304-7.674-2.304-2.364 0-4.426.77-6.036 2.223z" fill="#00C1FF"/>
    <path d="m71.862 221.825-.508-.487c-1.99-2.108-3.165-5.383-3.165-9.623v.998V61.251v1c0-4.591 1.37-8.05 3.665-10.123l84.716 84.851-84.708 84.846z" fill="url(#a)"/>
    <path d="m184.813 165.271-28.243-28.293 28.241-28.288 34.094 19.401c4.329 2.464 6.76 5.639 7.166 8.885v.012c-.406 3.238-2.837 6.416-7.166 8.88l-34.092 19.403" fill="url(#b)"/>
    <path d="M77.904 224.053c-2.367.002-4.432-.771-6.042-2.227v-.002l84.709-84.846 28.242 28.294-99.25 56.483c-2.745 1.559-5.347 2.298-7.66 2.298z" fill="url(#c)"/>
    <path d="M156.571 136.979 71.853 52.128c1.61-1.453 3.673-2.223 6.037-2.223 2.318 0 4.922.74 7.674 2.303l99.246 56.483-28.24 28.288" fill="url(#d)"/>
    <path d="M77.906 225.056c-2.366 0-4.434-.774-6.044-2.229l-.003.003a.193.193 0 0 0-.021-.019l-.44-.431c-.014-.013-.027-.029-.043-.045l.507-.508c1.61 1.455 3.675 2.228 6.042 2.225 2.313 0 4.914-.738 7.66-2.297l99.249-56.483.636.637-.644.366-99.241 56.48c-2.502 1.421-4.883 2.162-7.033 2.285-.208.01-.416.015-.625.015" fill="url(#e)"/>
    <path d="M71.354 222.336c-1.99-2.108-3.165-5.38-3.165-9.623v-.998c0 4.24 1.175 7.514 3.165 9.623l.508.487-.508.511" fill="url(#f)"/>
    <path d="m185.448 165.909-.636-.637 34.092-19.404c4.33-2.463 6.76-5.642 7.167-8.879 0 1.188-.265 2.376-.791 3.532-1.06 2.33-3.186 4.532-6.376 6.348l-33.456 19.04" fill="url(#g)"/>
    <path d="M226.071 136.977c-.406-3.246-2.837-6.421-7.166-8.885l-34.094-19.401.635-.637h.003l33.456 19.04c4.773 2.718 7.164 6.3 7.166 9.883" fill="url(#h)"/>
    <path d="M68.19 62.251v-1.046c0-.378.01-.747.029-1.105v-.017c0-.004 0-.01.002-.015v-.04c.206-3.652 1.338-6.501 3.133-8.403l.5.502c-2.295 2.074-3.665 5.533-3.665 10.124z" fill="url(#i)"/>
    <path d="M184.811 108.69 85.564 52.207c-2.751-1.562-5.355-2.303-7.673-2.303-2.364 0-4.427.77-6.037 2.223l-.5-.503c.157-.165.319-.325.487-.478.005-.006.013-.011.019-.017 1.597-1.441 3.637-2.212 5.98-2.226h.05c2.32 0 4.923.742 7.674 2.304l99.885 56.844-.002.002-.636.637" fill="url(#j)"/>
    <defs>
        <linearGradient id="a" x1="122.329" y1="59.65" x2="49.322" y2="132.774" gradientUnits="userSpaceOnUse">
            <stop stop-color="#00A0FF"/>
            <stop offset=".007" stop-color="#00A1FF"/>
            <stop offset=".26" stop-color="#00BEFF"/>
            <stop offset=".512" stop-color="#00D2FF"/>
            <stop offset=".76" stop-color="#00DFFF"/>
            <stop offset="1" stop-color="#00E3FF"/>
        </linearGradient>
        <linearGradient id="b" x1="231.346" y1="136.489" x2="65.897" y2="136.489" gradientUnits="userSpaceOnUse">
            <stop stop-color="#FFE000"/>
            <stop offset=".409" stop-color="#FFBD00"/>
            <stop offset=".775" stop-color="orange"/>
            <stop offset="1" stop-color="#FF9C00"/>
        </linearGradient>
        <linearGradient id="c" x1="169.819" y1="163.878" x2="46.103" y2="286.888" gradientUnits="userSpaceOnUse">
            <stop stop-color="#FF3A44"/>
            <stop offset="1" stop-color="#C31162"/>
        </linearGradient>
        <linearGradient id="d" x1="50.02" y1="39.548" x2="105.157" y2="94.455" gradientUnits="userSpaceOnUse">
            <stop stop-color="#32A071"/>
            <stop offset=".069" stop-color="#2DA771"/>
            <stop offset=".476" stop-color="#15CF74"/>
            <stop offset=".801" stop-color="#06E775"/>
            <stop offset="1" stop-color="#00F076"/>
        </linearGradient>
        <linearGradient id="e" x1="169.758" y1="183.504" x2="70.68" y2="282.742" gradientUnits="userSpaceOnUse">
            <stop stop-color="#CC2E36"/>
            <stop offset="1" stop-color="#9C0E4E"/>
        </linearGradient>
        <linearGradient id="f" x1="79.475" y1="59.65" x2="15.157" y2="124.072" gradientUnits="userSpaceOnUse">
            <stop stop-color="#008DE0"/>
            <stop offset=".007" stop-color="#008DE0"/>
            <stop offset=".26" stop-color="#00A7E0"/>
            <stop offset=".512" stop-color="#00B8E0"/>
            <stop offset=".76" stop-color="#00C4E0"/>
            <stop offset="1" stop-color="#00C7E0"/>
        </linearGradient>
        <linearGradient id="g" x1="231.346" y1="136.983" x2="65.896" y2="136.983" gradientUnits="userSpaceOnUse">
            <stop stop-color="#E0C500"/>
            <stop offset=".409" stop-color="#E0A600"/>
            <stop offset=".775" stop-color="#E09100"/>
            <stop offset="1" stop-color="#E08900"/>
        </linearGradient>
        <linearGradient id="h" x1="231.347" y1="136.983" x2="65.897" y2="136.983" gradientUnits="userSpaceOnUse">
            <stop stop-color="#FFE840"/>
            <stop offset=".409" stop-color="#FFCE40"/>
            <stop offset=".775" stop-color="#FFBC40"/>
            <stop offset="1" stop-color="#FFB540"/>
        </linearGradient>
        <linearGradient id="i" x1="79.405" y1="59.766" x2="17.456" y2="119.128" gradientUnits="userSpaceOnUse">
            <stop stop-color="#40B8FF"/>
            <stop offset=".007" stop-color="#40B9FF"/>
            <stop offset=".26" stop-color="#40CEFF"/>
            <stop offset=".512" stop-color="#40DDFF"/>
            <stop offset=".76" stop-color="#40E7FF"/>
            <stop offset="1" stop-color="#40EAFF"/>
        </linearGradient>
        <linearGradient id="j" x1="49.897" y1="57.492" x2="94.139" y2="101.806" gradientUnits="userSpaceOnUse">
            <stop stop-color="#65B895"/>
            <stop offset=".069" stop-color="#62BD95"/>
            <stop offset=".476" stop-color="#50DB97"/>
            <stop offset=".801" stop-color="#44ED98"/>
            <stop offset="1" stop-color="#40F498"/>
        </linearGradient>
    </defs>
</svg>
