<svg width="55" height="53" viewBox="0 0 55 53" fill="none" xmlns="http://www.w3.org/2000/svg">
    <g filter="url(#ht4e1gfm8a)">
        <path d="M27.133 2.262c.115-.35.619-.35.734 0l5.023 15.204c.207.626.8 1.05 1.469 1.05h16.254c.374 0 .53.47.227.687l-13.15 9.396a1.505 1.505 0 0 0-.56 1.698l5.022 15.204c.115.35-.292.641-.594.425l-13.15-9.397a1.565 1.565 0 0 0-1.816 0l-13.15 9.397c-.302.216-.71-.075-.594-.425l5.023-15.203a1.505 1.505 0 0 0-.561-1.699L4.16 19.203c-.303-.216-.147-.687.227-.687H20.64c.67 0 1.262-.424 1.469-1.05l5.023-15.204z" fill="#EEA744"/>
    </g>
    <path opacity=".4" d="m36.109 14.523 5.033-10.715 5.682 5.683-10.715 5.032zM18.769 14.523 13.736 3.808 8.054 9.49l10.715 5.032zM27 42l-4 11h8l-4-11z" fill="#EEA744"/>
    <defs>
        <filter id="ht4e1gfm8a" x="0" y="0" width="55" height="52" filterUnits="userSpaceOnUse" color-interpolation-filters="sRGB">
            <feFlood flood-opacity="0" result="BackgroundImageFix"/>
            <feColorMatrix in="SourceAlpha" values="0 0 0 0 0 0 0 0 0 0 0 0 0 0 0 0 0 0 127 0" result="hardAlpha"/>
            <feOffset dy="2"/>
            <feGaussianBlur stdDeviation="2"/>
            <feColorMatrix values="0 0 0 0 0 0 0 0 0 0 0 0 0 0 0 0 0 0 0.12 0"/>
            <feBlend in2="BackgroundImageFix" result="effect1_dropShadow_1359_711"/>
            <feBlend in="SourceGraphic" in2="effect1_dropShadow_1359_711" result="shape"/>
        </filter>
    </defs>
</svg>
