<svg width="43" height="42" viewBox="0 0 43 42" fill="none" xmlns="http://www.w3.org/2000/svg">
    <path fill-rule="evenodd" clip-rule="evenodd" d="M0 3.374A2.874 2.874 0 0 1 2.874.5H28.7a2.76 2.76 0 0 1 2.76 2.76v12.662h-1.916V3.26a.844.844 0 0 0-.844-.843H2.874a.958.958 0 0 0-.958.958v35.252c0 .53.429.958.958.958h25.712a.958.958 0 0 0 .958-.958v-12.24h1.916v12.24a2.874 2.874 0 0 1-2.874 2.874H2.874A2.874 2.874 0 0 1 0 38.626V3.374zm5.805 7.351V8.81h19.85v1.916H5.805z" fill="#3C7493"/>
    <path fill-rule="evenodd" clip-rule="evenodd" d="M22.808 18.727H6.498V16.81h16.31v1.916zm-5.502 7.386H6.497v-1.916h10.809v1.916zm0 7.386H6.497v-1.916h10.809v1.916zM34.878 10.719a2.874 2.874 0 0 1 4.035 0l2.264 2.231a2.874 2.874 0 0 1 0 4.094L25.732 32.268h-6.344v-6.281l15.49-15.268zm2.69 1.364a.958.958 0 0 0-1.345 0l-1.53 1.508 3.629 3.577 1.51-1.489a.958.958 0 0 0 0-1.364l-2.264-2.232zm-.61 6.43-3.63-3.577-12.024 11.852v3.564h3.643l12.01-11.84z" fill="#3C7493"/>
</svg>
