<svg width="37" height="37" viewBox="0 0 37 37" fill="none" xmlns="http://www.w3.org/2000/svg">
    <path d="m18.582 14.795.044.762-.784-.087c-2.874-.37-5.378-1.611-7.49-3.68l-1.046-1.045-.26.762c-.567 1.699-.219 3.506.979 4.704.61.675.479.762-.61.37-.37-.13-.696-.218-.74-.174-.109.108.261 1.567.566 2.134.414.783 1.241 1.567 2.156 2.024l.784.37-.915.022c-.893 0-.914 0-.827.349.305 1.023 1.568 2.112 2.94 2.59l.98.35-.85.5a8.678 8.678 0 0 1-4.224 1.176c-.697.022-1.285.087-1.285.13 0 .153 1.916 1.046 3.048 1.394 3.332 1.045 7.317.588 10.321-1.176 2.113-1.263 4.246-3.745 5.226-6.162.545-1.285 1.067-3.636 1.067-4.768 0-.719.044-.828.937-1.699.522-.5 1.001-1.067 1.088-1.22.174-.304.153-.304-.653-.043-1.328.48-1.524.414-.871-.283.5-.522 1.089-1.437 1.089-1.698 0-.066-.24.022-.523.174-.283.152-.914.392-1.372.523l-.849.283-.784-.523c-.413-.283-1.023-.61-1.328-.697-.806-.24-2.025-.196-2.744.066-1.981.696-3.222 2.547-3.07 4.572z" fill="#4BA6FA"/>
    <path fill-rule="evenodd" clip-rule="evenodd" d="M18.5 35C27.613 35 35 27.613 35 18.5S27.613 2 18.5 2 2 9.387 2 18.5 9.387 35 18.5 35zm0 2C28.717 37 37 28.717 37 18.5S28.717 0 18.5 0 0 8.283 0 18.5 8.283 37 18.5 37z" fill="#4BA6FA"/>
</svg>
