<svg width="37" height="37" viewBox="0 0 37 37" fill="none" xmlns="http://www.w3.org/2000/svg">
    <circle cx="18.5" cy="18.5" r="17.5" stroke="#34A853" stroke-width="2"/>
    <path fill-rule="evenodd" clip-rule="evenodd" d="M22.853 20.386c-.237-.118-1.399-.687-1.616-.765-.216-.079-.374-.118-.531.117-.158.236-.61.766-.749.923-.138.157-.276.176-.512.058-.236-.117-.998-.366-1.9-1.167-.704-.624-1.178-1.394-1.316-1.63-.138-.235-.014-.363.104-.48.106-.105.236-.275.354-.412.119-.137.158-.236.237-.393.079-.157.04-.294-.02-.412-.059-.117-.532-1.275-.729-1.746-.192-.46-.386-.397-.532-.404a9.543 9.543 0 0 0-.453-.008.87.87 0 0 0-.63.294c-.217.235-.827.804-.827 1.962s.847 2.277.965 2.434c.118.157 1.667 2.533 4.038 3.552a13.59 13.59 0 0 0 1.348.496c.566.179 1.081.154 1.488.093.454-.068 1.399-.57 1.596-1.119.197-.55.197-1.02.138-1.118-.06-.099-.217-.157-.453-.275zm-4.313 5.86h-.003a7.88 7.88 0 0 1-4.002-1.09l-.288-.17-2.976.777.795-2.887-.187-.297a7.78 7.78 0 0 1-1.202-4.164c.001-4.315 3.529-7.825 7.866-7.825 2.1 0 4.074.816 5.559 2.295a7.76 7.76 0 0 1 2.3 5.536c-.001 4.315-3.528 7.826-7.862 7.826zm6.692-14.485A9.422 9.422 0 0 0 18.54 9c-5.215 0-9.459 4.223-9.46 9.414-.001 1.66.434 3.28 1.262 4.707L9 28l5.015-1.31a9.488 9.488 0 0 0 4.52 1.147h.005c5.214 0 9.458-4.224 9.46-9.415a9.336 9.336 0 0 0-2.768-6.66z" fill="#34A853"/>
</svg>
